<svg xmlns="http://www.w3.org/2000/svg" viewBox="0 0 100 100">
  <defs>
    <!-- Subtle sheen for 3D depth -->
    <radialGradient id="hl" cx="32" cy="28" r="42" gradientUnits="userSpaceOnUse">
      <stop offset="0%"   stop-color="#FFFFFF" stop-opacity="0.14"/>
      <stop offset="100%" stop-color="#FFFFFF" stop-opacity="0"/>
    </radialGradient>
  </defs>

  <!-- White background -->
  <circle cx="50" cy="50" r="50" fill="#FFFFFF"/>

  <!-- Back layer — 4 petals at 45° offsets, slightly lighter black -->
  <g fill="#1A1A1A" opacity="0.75">
    <path d="M50,50 C36,46 34,19 50,7 C66,19 64,46 50,50" transform="rotate(45,50,50)"/>
    <path d="M50,50 C36,46 34,19 50,7 C66,19 64,46 50,50" transform="rotate(135,50,50)"/>
    <path d="M50,50 C36,46 34,19 50,7 C66,19 64,46 50,50" transform="rotate(225,50,50)"/>
    <path d="M50,50 C36,46 34,19 50,7 C66,19 64,46 50,50" transform="rotate(315,50,50)"/>
  </g>

  <!-- Front layer — 4 petals at cardinal angles, true black -->
  <g fill="#0A0A0A">
    <path d="M50,50 C36,46 34,19 50,7 C66,19 64,46 50,50"/>
    <path d="M50,50 C36,46 34,19 50,7 C66,19 64,46 50,50" transform="rotate(90,50,50)"/>
    <path d="M50,50 C36,46 34,19 50,7 C66,19 64,46 50,50" transform="rotate(180,50,50)"/>
    <path d="M50,50 C36,46 34,19 50,7 C66,19 64,46 50,50" transform="rotate(270,50,50)"/>
  </g>

  <!-- Upper-left sheen for sculptural depth -->
  <circle cx="50" cy="50" r="50" fill="url(#hl)"/>
</svg>
